<svg xmlns="http://www.w3.org/2000/svg" version="1.1" xmlns:xlink="http://www.w3.org/1999/xlink" xmlns:svgjs="http://svgjs.dev/svgjs" viewBox="0 0 1920 1080" class="overflow-hidden rounded-md drop-shadow-lg transition duration-300 w-85screen rotate-90" style="overflow: hidden; height: 85vh;"><rect width="1920" height="1080" fill="#b5b2c5"/><g clip-path="url(&quot;#SvgjsClipPath1074&quot;)"><g transform="matrix(1.15,0,0,1.15,-144,-81)"><path d="M0,-1080C8.371167186223,-963.6484699553035,50.00777625151607,-607.328425508604,50.227003117338,-381.890819731821C50.44622998315993,-156.453213955038,6.143488806976767,64.94721460724895,1.3153611949315973,272.6256346606981C-3.512766417113572,480.30405471414724,12.01446723857309,653.0088500061295,21.25823744506698,864.1797005888737C30.502007651560874,1075.350551171618,60.32102200807278,1323.6806882553096,56.77798243389495,1539.650738157164C53.234942859717115,1755.6207880590182,9.462997072315824,2056.6084563595273,0,2160L 1920 2160 L 1920 -1080 Z" fill="url(&quot;#SvgjsLinearGradient1072&quot;)"/><path d="M960,-1080C957.4364315392096,-951.6454687691562,935.2185784737113,-586.2025755055868,944.6185892352574,-309.87281261493746C954.0185999968036,-33.54304972428815,1024.1596868059976,299.1505541126479,1016.4000645692768,577.9785773438958C1008.640442332556,856.8066005751438,907.460866576479,1099.4250896631995,898.0608558149329,1363.0953267725502C888.6608450533868,1626.7655638819008,949.6768093024888,2027.1825544620917,960,2160L 1920 2160 L 1920 -1080 Z" fill="url(&quot;#SvgjsLinearGradient1073&quot;)"/></g></g><defs><linearGradient x1="0.1" y1="0" x2="0" y2="1" id="SvgjsLinearGradient1072"><stop stop-color="#b5b2c5" offset="0"/><stop stop-color="#b2b2c5" offset="0"/></linearGradient><linearGradient x1="0.1" y1="0" x2="0" y2="1" id="SvgjsLinearGradient1073"><stop stop-color="#dedce5" offset="0"/><stop stop-color="#dcdce5" offset="0.5"/></linearGradient><clipPath id="SvgjsClipPath1074"><rect width="1920" height="1080"/></clipPath></defs></svg>